# File created by Blade
# Date/Time:  Tue Sep 28 14:35:47 2010
#---------------------------------------------------------
:version 1.10
:name HOM
:units
  mass 1.0
  length 1.000000
  angle deg
:documentation
     Acclaim Skeleton File
:root
   axis xyz
   order TX TY TZ RX RY RZ
   position 0.000000 0.000000 0.000000
   orientation 0 0 0
:bonedata
   begin
      id 1
      name LeftUpLeg_dum
      direction 1.000000 0.000000 0.000000
      length 3.677894
      axis 0.0 0.0 0.0 xyz
   end
   begin
      id 2
      name RightUpLeg_dum
      direction -1.000000 0.000000 0.000000
      length 3.677894
      axis 0.0 0.0 0.0 xyz
   end
   begin
      id 3
      name Spine_dum
      direction 0.000000 1.000000 0.000000
      length 0.039370
      axis 0.0 0.0 0.0 xyz
   end
   begin
      id 4
      name LeftUpLeg
      direction 0.000000 -1.000000 0.000000
      length 18.389491
      axis 0.0 0.0 0.0 xyz
      dof rx ry rz
   end
   begin
      id 5
      name LeftLeg
      direction 0.000000 -1.000000 0.000000
      length 16.918313
      axis 0.0 0.0 0.0 xyz
      dof rx ry rz
   end
   begin
      id 6
      name LeftFoot
      direction 0.000000 -0.258819 0.965926
      length 6.436326
      axis 15.0 0.0 0.0 xyz
      dof rx ry rz
   end
   begin
      id 7
      name LeftToeBase
      direction 0.000000 0.000000 1.000000
      length 2.952750
      axis 0.0 0.0 0.0 xyz
      dof rx ry rz
   end
   begin
      id 8
      name RightUpLeg
      direction 0.000000 -1.000000 0.000000
      length 18.389491
      axis 0.0 0.0 0.0 xyz
      dof rx ry rz
   end
   begin
      id 9
      name RightLeg
      direction 0.000000 -1.000000 0.000000
      length 16.918313
      axis 0.0 0.0 0.0 xyz
      dof rx ry rz
   end
   begin
      id 10
      name RightFoot
      direction 0.000000 -0.258819 0.965926
      length 6.436326
      axis 15.0 0.0 0.0 xyz
      dof rx ry rz
   end
   begin
      id 11
      name RightToeBase
      direction 0.000000 0.000000 1.000000
      length 2.952750
      axis 0.0 0.0 0.0 xyz
      dof rx ry rz
   end
   begin
      id 12
      name Spine
      direction 0.000000 1.000000 0.000000
      length 9.194745
      axis 0.0 0.0 0.0 xyz
      dof rx ry rz
   end
   begin
      id 13
      name Spine1
      direction 0.000000 1.000000 0.000000
      length 0.000000
      axis 0.0 0.0 0.0 xyz
      dof rx ry rz
   end
   begin
      id 14
      name Spine1_dum1
      direction 0.000000 1.000000 0.000000
      length 9.194745
      axis 0.0 0.0 0.0 xyz
   end
   begin
      id 15
      name Spine1_dum2
      direction 0.000000 1.000000 0.000000
      length 9.194745
      axis 0.0 0.0 0.0 xyz
   end
   begin
      id 16
      name Spine1_dum3
      direction 0.000000 1.000000 0.000000
      length 9.194745
      axis 0.0 0.0 0.0 xyz
   end
   begin
      id 17
      name Neck
      direction 0.000000 1.000000 0.000000
      length 4.229598
      axis 0.0 0.0 0.0 xyz
      dof rx ry rz
   end
   begin
      id 18
      name Head
      direction 0.000000 1.000000 0.000000
      length 4.527550
      axis 0.0 0.0 0.0 xyz
      dof rx ry rz
   end
   begin
      id 19
      name LeftShoulder
      direction 1.000000 -0.000004 0.000000
      length 5.516839
      axis 0.0 0.0 -90.0 xyz
      dof rx ry rz
   end
   begin
      id 20
      name LeftArm
      direction 1.000000 -0.000004 0.000000
      length 11.033679
      axis 0.0 0.0 -90.0 xyz
      dof rx ry rz
   end
   begin
      id 21
      name LeftForeArm
      direction 1.000000 -0.000004 0.000000
      length 10.114232
      axis 0.0 0.0 -90.0 xyz
      dof rx ry rz
   end
   begin
      id 22
      name LeftHand
      direction 0.000000 0.000000 0.000000
      length 0.000000
      axis 0.0 0.0 -90.0 xyz
      dof rx ry rz
   end
   begin
      id 23
      name LeftHand_dum1
      direction 0.000000 0.000000 0.000000
      length 0.000000
      axis 0.0 0.0 -90.0 xyz
   end
   begin
      id 24
      name LeftHand_dum2
      direction 1.000000 -0.000004 0.000000
      length 3.937000
      axis 0.0 0.0 -90.0 xyz
   end
   begin
      id 25
      name LeftHandThumb
      direction 0.000000 0.000000 1.000000
      length 3.937000
      axis 0.0 0.0 -90.0 xyz
      dof rx ry rz
   end
   begin
      id 26
      name RightShoulder
      direction -1.000000 -0.000004 0.000000
      length 5.516839
      axis 0.0 0.0 90.0 xyz
      dof rx ry rz
   end
   begin
      id 27
      name RightArm
      direction -1.000000 -0.000004 0.000000
      length 11.033679
      axis 0.0 0.0 90.0 xyz
      dof rx ry rz
   end
   begin
      id 28
      name RightForeArm
      direction -1.000000 -0.000004 0.000000
      length 10.114232
      axis 0.0 0.0 90.0 xyz
      dof rx ry rz
   end
   begin
      id 29
      name RightHand
      direction 0.000000 0.000000 0.000000
      length 0.000000
      axis 0.0 0.0 90.0 xyz
      dof rx ry rz
   end
   begin
      id 30
      name RightHand_dum1
      direction 0.000000 0.000000 0.000000
      length 0.000000
      axis 0.0 0.0 90.0 xyz
   end
   begin
      id 31
      name RightHand_dum2
      direction -1.000000 -0.000004 0.000000
      length 5.393690
      axis 0.0 0.0 90.0 xyz
   end
   begin
      id 32
      name RightHandThumb
      direction 0.000000 0.000000 1.000000
      length 3.937000
      axis 0.0 0.0 90.0 xyz
      dof rx ry rz
   end
:hierarchy
   begin
      root LeftUpLeg_dum RightUpLeg_dum Spine_dum
      LeftUpLeg_dum LeftUpLeg
      RightUpLeg_dum RightUpLeg
      Spine_dum Spine
      LeftUpLeg LeftLeg
      LeftLeg LeftFoot
      LeftFoot LeftToeBase
      RightUpLeg RightLeg
      RightLeg RightFoot
      RightFoot RightToeBase
      Spine Spine1
      Spine1 Spine1_dum1 Spine1_dum2 Spine1_dum3
      Spine1_dum1 Neck
      Spine1_dum2 LeftShoulder
      Spine1_dum3 RightShoulder
      Neck Head
      LeftShoulder LeftArm
      LeftArm LeftForeArm
      LeftForeArm LeftHand
      LeftHand LeftHand_dum1 LeftHand_dum2
      LeftHand_dum1 LeftHandThumb
      RightShoulder RightArm
      RightArm RightForeArm
      RightForeArm RightHand
      RightHand RightHand_dum1 RightHand_dum2
      RightHand_dum1 RightHandThumb
   end

# File created by Blade
# Date/Time:  Tue Sep 28 14:35:42 2010
# Frame Rate: 200.000 fps
#------------------------------------------------------
:FULLY-SPECIFIED
:DEGREES
1123
root  4.020727 38.300549 94.127068 7.166218 -0.349164 -3.302083
LeftUpLeg  -15.848606 7.841044 -0.783476
LeftLeg  12.592265 -0.000000 0.000000
LeftFoot  5.940992 10.486199 8.052599
LeftToeBase  -7.469830 0.000000 -0.000000
RightUpLeg  -19.360202 -22.526277 4.169599
RightLeg  34.676727 -0.000000 0.000000
RightFoot  0.934905 -4.116606 -14.558395
RightToeBase  -14.623759 0.000000 -0.000000
Spine  -15.636703 -1.539595 -1.048536
Spine1  15.288751 -0.360227 4.257548
Neck  20.313280 4.062483 -7.740983
Head  -10.750802 3.115194 1.116840
LeftShoulder  -11.622403 14.980053 -23.077895
LeftArm  2.601025 -27.369799 -2.918644
LeftForeArm  9.848952 -0.000000 0.000000
LeftHand  3.319620 9.098135 3.343003
LeftHandThumb  0.000000 -0.000000 0.000000
RightShoulder  0.224931 9.294258 10.646004
RightArm  0.164784 -11.869160 9.679444
RightForeArm  4.126652 -0.000000 0.000000
RightHand  -0.824706 -1.581141 -3.310673
RightHandThumb  0.000000 -0.000000 0.000000
1124
root  4.026821 38.311742 94.184219 7.244598 -0.388141 -3.411535
LeftUpLeg  -15.758029 7.646720 -0.632368
LeftLeg  12.471540 -0.000000 0.000000
LeftFoot  5.998963 10.803620 7.760880
LeftToeBase  -7.773272 0.000000 -0.000000
RightUpLeg  -19.418008 -22.515905 4.416305
RightLeg  33.837759 -0.000000 0.000000
RightFoot  0.769353 -3.468317 -14.175658
RightToeBase  -14.868132 0.000000 -0.000000
Spine  -15.543736 -1.543877 -0.953680
Spine1  15.143443 -0.396527 4.243756
Neck  20.201103 4.128482 -7.719392
Head  -11.027685 2.992913 1.116526
LeftShoulder  -11.752517 14.839593 -22.835772
LeftArm  2.416099 -28.309490 -2.760192
LeftForeArm  9.707628 -0.000000 0.000000
LeftHand  4.415302 9.486495 2.796920
LeftHandThumb  0.000000 -0.000000 0.000000
RightShoulder  0.103525 8.965929 10.433651
RightArm  0.207023 -9.543140 9.402718
RightForeArm  3.849385 -0.000000 0.000000
RightHand  1.201268 -2.678375 -2.263563
RightHandThumb  0.000000 -0.000000 0.000000
1125
root  4.034536 38.328178 94.243322 7.323937 -0.423834 -3.495315
LeftUpLeg  -15.654241 7.364933 -0.497083
LeftLeg  12.329678 -0.000000 0.000000
LeftFoot  6.039108 11.073778 7.564509
LeftToeBase  -8.034729 0.000000 -0.000000
RightUpLeg  -19.418372 -22.543707 4.640107
RightLeg  32.930848 -0.000000 0.000000
RightFoot  0.651477 -2.858450 -13.883921
RightToeBase  -14.949766 0.000000 -0.000000
Spine  -15.497735 -1.539420 -0.864926
Spine1  14.891466 -0.416087 4.247477
Neck  20.240787 4.287285 -7.958767
Head  -11.266532 2.465632 1.467263
LeftShoulder  -11.816823 14.642008 -22.567011
LeftArm  2.289070 -28.590746 -2.624636
LeftForeArm  9.547366 -0.000000 0.000000
LeftHand  4.369337 10.382112 2.823190
LeftHandThumb  0.000000 -0.000000 0.000000
RightShoulder  0.093851 9.126854 10.267344
RightArm  0.131105 -9.511676 9.153359
RightForeArm  3.553227 -0.000000 0.000000
RightHand  1.534692 -3.279710 -2.461239
RightHandThumb  0.000000 -0.000000 0.000000
1126
root  4.038011 38.345609 94.297043 7.411829 -0.455068 -3.588166
LeftUpLeg  -15.542843 7.145819 -0.362133
LeftLeg  12.127237 -0.000000 0.000000
LeftFoot  6.018474 11.269280 7.443155
LeftToeBase  -7.812247 0.000000 -0.000000
RightUpLeg  -19.419478 -22.729076 4.924581
RightLeg  31.988250 -0.000000 0.000000
RightFoot  0.338928 -2.236743 -13.837000
RightToeBase  -15.096199 0.000000 -0.000000
Spine  -15.442201 -1.521573 -0.793800
Spine1  14.654661 -0.417085 4.233821
Neck  20.597246 4.072387 -7.691391
Head  -11.183257 3.305377 1.027300
LeftShoulder  -11.881639 14.295013 -22.257888
LeftArm  2.143387 -28.292633 -2.419698
LeftForeArm  9.645506 -0.000000 0.000000
LeftHand  3.548077 11.018744 3.290267
LeftHandThumb  0.000000 -0.000000 0.000000
RightShoulder  0.068030 9.212091 10.099932
RightArm  0.045080 -10.165742 8.965898
RightForeArm  3.590886 -0.000000 0.000000
RightHand  -0.259457 -3.871345 -3.015489
RightHandThumb  0.000000 -0.000000 0.000000
1127
root  4.039616 38.355560 94.355704 7.493423 -0.477573 -3.701108
LeftUpLeg  -15.444507 6.890438 -0.195667
LeftLeg  11.972262 -0.000000 0.000000
LeftFoot  6.014299 11.541526 7.371911
LeftToeBase  -7.739343 0.000000 -0.000000
RightUpLeg  -19.404798 -22.844132 5.208250
RightLeg  31.073917 -0.000000 0.000000
RightFoot  0.132900 -1.643960 -13.619671
RightToeBase  -14.905607 0.000000 -0.000000
Spine  -15.408338 -1.523550 -0.697381
Spine1  14.430917 -0.447336 4.226546
Neck  20.716348 3.987227 -7.700724
Head  -11.474273 3.164519 1.070777
LeftShoulder  -11.965075 14.119789 -21.901476
LeftArm  2.024677 -28.430787 -2.299405
LeftForeArm  9.564127 -0.000000 0.000000
LeftHand  4.057189 9.325553 3.257297
LeftHandThumb  0.000000 -0.000000 0.000000
RightShoulder  0.032418 8.944152 9.875846
RightArm  0.025189 -9.831153 8.701083
RightForeArm  3.419173 -0.000000 0.000000
RightHand  0.251749 -2.609942 -2.319543
RightHandThumb  0.000000 -0.000000 0.000000
1128
root  4.043022 38.367976 94.410212 7.573523 -0.525991 -3.761378
LeftUpLeg  -15.370217 6.673065 -0.098891
LeftLeg  11.851356 -0.000000 0.000000
LeftFoot  5.976212 11.790126 7.140680
LeftToeBase  -7.492570 0.000000 -0.000000
RightUpLeg  -19.367179 -22.985884 5.442258
RightLeg  30.107836 -0.000000 0.000000
RightFoot  -0.197532 -1.057884 -13.483891
RightToeBase  -13.278049 0.000000 -0.000000
Spine  -15.347387 -1.522234 -0.638801
Spine1  14.216058 -0.459863 4.213089
Neck  20.689365 4.001626 -7.647621
Head  -11.389877 3.203714 0.967850
LeftShoulder  -12.027483 13.832214 -21.611571
LeftArm  1.883470 -28.681306 -2.123508
LeftForeArm  9.498644 -0.000000 0.000000
LeftHand  3.841117 9.016457 3.383296
LeftHandThumb  0.000000 -0.000000 0.000000
RightShoulder  -0.017926 9.092150 9.697755
RightArm  -0.047186 -9.733704 8.503713
RightForeArm  3.355471 -0.000000 0.000000
RightHand  0.053874 -2.421444 -2.816194
RightHandThumb  0.000000 -0.000000 0.000000
1129
root  4.043273 38.381800 94.472132 7.639980 -0.528492 -3.849283
LeftUpLeg  -15.258549 6.344141 0.062425
LeftLeg  11.703667 -0.000000 0.000000
LeftFoot  6.091959 12.025278 7.050068
LeftToeBase  -7.844180 0.000000 -0.000000
RightUpLeg  -19.332372 -23.122360 5.702058
RightLeg  29.184734 -0.000000 0.000000
RightFoot  -0.147260 -0.444350 -13.304409
RightToeBase  -15.079276 0.000000 -0.000000
Spine  -15.331429 -1.511564 -0.556496
Spine1  13.944773 -0.469830 4.208896
Neck  21.020959 4.105474 -7.771737
Head  -11.649861 3.083945 1.136999
LeftShoulder  -12.071491 13.502595 -21.221901
LeftArm  1.815219 -28.576971 -2.021539
LeftForeArm  9.449720 -0.000000 0.000000
LeftHand  3.411906 10.146636 3.560148
LeftHandThumb  0.000000 -0.000000 0.000000
RightShoulder  -0.052508 8.884978 9.528491
RightArm  -0.106948 -9.848384 8.274716
RightForeArm  3.229687 -0.000000 0.000000
RightHand  -0.277193 -2.464436 -3.172242
RightHandThumb  0.000000 -0.000000 0.000000
